<svg id="visual" viewBox="0 0 4000 200" width="4000" height="200" xmlns="http://www.w3.org/2000/svg" xmlns:xlink="http://www.w3.org/1999/xlink" version="1.1"><rect x="0" y="0" width="4000" height="200" fill="#000"></rect><path d="M0 185L166.7 156.3C333.3 127.7 666.7 70.3 1000 53C1333.3 35.7 1666.7 58.3 2000 78.5C2333.3 98.7 2666.7 116.3 3000 114.3C3333.3 112.3 3666.7 90.7 3833.3 79.8L4000 69L4000 201L3833.3 201C3666.7 201 3333.3 201 3000 201C2666.7 201 2333.3 201 2000 201C1666.7 201 1333.3 201 1000 201C666.7 201 333.3 201 166.7 201L0 201Z" fill="#0070f3" stroke-linecap="round" stroke-linejoin="miter"></path></svg>