<svg id="visual" viewBox="0 0 4000 200" width="4000" height="200" xmlns="http://www.w3.org/2000/svg" xmlns:xlink="http://www.w3.org/1999/xlink" version="1.1"><rect x="0" y="0" width="4000" height="200" fill="#000"></rect><path d="M0 158L21.5 142.8C43 127.7 86 97.3 129 87.3C172 77.3 215 87.7 258 100.7C301 113.7 344 129.3 387 139.3C430 149.3 473 153.7 516 135.8C559 118 602 78 645 55.3C688 32.7 731 27.3 774 47.5C817 67.7 860 113.3 903 128.7C946 144 989 129 1032 110.8C1075 92.7 1118 71.3 1161 68.3C1204 65.3 1247 80.7 1290 94.7C1333 108.7 1376 121.3 1419 124.2C1462 127 1505 120 1548 117.8C1591 115.7 1634 118.3 1677 127.7C1720 137 1763 153 1806 165.2C1849 177.3 1892 185.7 1935.2 162.5C1978.3 139.3 2021.7 84.7 2064.8 74.2C2108 63.7 2151 97.3 2194 101.5C2237 105.7 2280 80.3 2323 66.3C2366 52.3 2409 49.7 2452 60.8C2495 72 2538 97 2581 100.5C2624 104 2667 86 2710 77.8C2753 69.7 2796 71.3 2839 82C2882 92.7 2925 112.3 2968 112.7C3011 113 3054 94 3097 85C3140 76 3183 77 3226 87.8C3269 98.7 3312 119.3 3355 134.5C3398 149.7 3441 159.3 3484 152.7C3527 146 3570 123 3613 100.3C3656 77.7 3699 55.3 3742 66.7C3785 78 3828 123 3871 121.2C3914 119.3 3957 70.7 3978.5 46.3L4000 22L4000 201L3978.5 201C3957 201 3914 201 3871 201C3828 201 3785 201 3742 201C3699 201 3656 201 3613 201C3570 201 3527 201 3484 201C3441 201 3398 201 3355 201C3312 201 3269 201 3226 201C3183 201 3140 201 3097 201C3054 201 3011 201 2968 201C2925 201 2882 201 2839 201C2796 201 2753 201 2710 201C2667 201 2624 201 2581 201C2538 201 2495 201 2452 201C2409 201 2366 201 2323 201C2280 201 2237 201 2194 201C2151 201 2108 201 2064.8 201C2021.7 201 1978.3 201 1935.2 201C1892 201 1849 201 1806 201C1763 201 1720 201 1677 201C1634 201 1591 201 1548 201C1505 201 1462 201 1419 201C1376 201 1333 201 1290 201C1247 201 1204 201 1161 201C1118 201 1075 201 1032 201C989 201 946 201 903 201C860 201 817 201 774 201C731 201 688 201 645 201C602 201 559 201 516 201C473 201 430 201 387 201C344 201 301 201 258 201C215 201 172 201 129 201C86 201 43 201 21.5 201L0 201Z" fill="#fff" stroke-linecap="round" stroke-linejoin="miter"></path></svg>