<svg id="visual" viewBox="0 0 4000 200" width="4000" height="200" xmlns="http://www.w3.org/2000/svg" xmlns:xlink="http://www.w3.org/1999/xlink" version="1.1"><rect x="0" y="0" width="4000" height="200" fill="#0070f3"></rect><path d="M0 78L21.5 88.7C43 99.3 86 120.7 129 112.7C172 104.7 215 67.3 258 53.8C301 40.3 344 50.7 387 65.2C430 79.7 473 98.3 516 104.7C559 111 602 105 645 98.8C688 92.7 731 86.3 774 84.5C817 82.7 860 85.3 903 95.5C946 105.7 989 123.3 1032 135.2C1075 147 1118 153 1161 138.5C1204 124 1247 89 1290 73.8C1333 58.7 1376 63.3 1419 85.3C1462 107.3 1505 146.7 1548 147C1591 147.3 1634 108.7 1677 79.7C1720 50.7 1763 31.3 1806 39.3C1849 47.3 1892 82.7 1935.2 95.7C1978.3 108.7 2021.7 99.3 2064.8 111.3C2108 123.3 2151 156.7 2194 155.2C2237 153.7 2280 117.3 2323 113.8C2366 110.3 2409 139.7 2452 137.8C2495 136 2538 103 2581 92.5C2624 82 2667 94 2710 89C2753 84 2796 62 2839 67.7C2882 73.3 2925 106.7 2968 118.2C3011 129.7 3054 119.3 3097 100.8C3140 82.3 3183 55.7 3226 67.5C3269 79.3 3312 129.7 3355 130C3398 130.3 3441 80.7 3484 76C3527 71.3 3570 111.7 3613 130.7C3656 149.7 3699 147.3 3742 122.2C3785 97 3828 49 3871 40C3914 31 3957 61 3978.5 76L4000 91L4000 201L3978.5 201C3957 201 3914 201 3871 201C3828 201 3785 201 3742 201C3699 201 3656 201 3613 201C3570 201 3527 201 3484 201C3441 201 3398 201 3355 201C3312 201 3269 201 3226 201C3183 201 3140 201 3097 201C3054 201 3011 201 2968 201C2925 201 2882 201 2839 201C2796 201 2753 201 2710 201C2667 201 2624 201 2581 201C2538 201 2495 201 2452 201C2409 201 2366 201 2323 201C2280 201 2237 201 2194 201C2151 201 2108 201 2064.8 201C2021.7 201 1978.3 201 1935.2 201C1892 201 1849 201 1806 201C1763 201 1720 201 1677 201C1634 201 1591 201 1548 201C1505 201 1462 201 1419 201C1376 201 1333 201 1290 201C1247 201 1204 201 1161 201C1118 201 1075 201 1032 201C989 201 946 201 903 201C860 201 817 201 774 201C731 201 688 201 645 201C602 201 559 201 516 201C473 201 430 201 387 201C344 201 301 201 258 201C215 201 172 201 129 201C86 201 43 201 21.5 201L0 201Z" fill="#FFFFFF" stroke-linecap="round" stroke-linejoin="miter"></path></svg>