<svg id="visual" viewBox="0 0 4000 200" width="4000" height="200" xmlns="http://www.w3.org/2000/svg" xmlns:xlink="http://www.w3.org/1999/xlink" version="1.1"><rect x="0" y="0" width="4000" height="200" fill="#0070f3"></rect><path d="M0 4L166.7 8.2C333.3 12.3 666.7 20.7 1000 32.3C1333.3 44 1666.7 59 2000 85.2C2333.3 111.3 2666.7 148.7 3000 157.3C3333.3 166 3666.7 146 3833.3 136L4000 126L4000 201L3833.3 201C3666.7 201 3333.3 201 3000 201C2666.7 201 2333.3 201 2000 201C1666.7 201 1333.3 201 1000 201C666.7 201 333.3 201 166.7 201L0 201Z" fill="#fff" stroke-linecap="round" stroke-linejoin="miter"></path></svg>