<svg id="visual" viewBox="0 0 4000 200" width="4000" height="200" xmlns="http://www.w3.org/2000/svg" xmlns:xlink="http://www.w3.org/1999/xlink" version="1.1"><rect x="0" y="0" width="4000" height="200" fill="#743ad5"></rect><path d="M0 45L166.7 69.7C333.3 94.3 666.7 143.7 1000 137.5C1333.3 131.3 1666.7 69.7 2000 37.8C2333.3 6 2666.7 4 3000 7.5C3333.3 11 3666.7 20 3833.3 24.5L4000 29L4000 201L3833.3 201C3666.7 201 3333.3 201 3000 201C2666.7 201 2333.3 201 2000 201C1666.7 201 1333.3 201 1000 201C666.7 201 333.3 201 166.7 201L0 201Z" fill="#000" stroke-linecap="round" stroke-linejoin="miter"></path></svg>