<svg id="visual" viewBox="0 0 4000 200" width="4000" height="200" xmlns="http://www.w3.org/2000/svg" xmlns:xlink="http://www.w3.org/1999/xlink" version="1.1"><rect x="0" y="0" width="4000" height="200" fill="#fff"></rect><path d="M0 3L21.5 27C43 51 86 99 129 119.3C172 139.7 215 132.3 258 123C301 113.7 344 102.3 387 86.8C430 71.3 473 51.7 516 37.8C559 24 602 16 645 29.3C688 42.7 731 77.3 774 93.3C817 109.3 860 106.7 903 106.2C946 105.7 989 107.3 1032 113.2C1075 119 1118 129 1161 142.2C1204 155.3 1247 171.7 1290 175.7C1333 179.7 1376 171.3 1419 153.2C1462 135 1505 107 1548 98.3C1591 89.7 1634 100.3 1677 108C1720 115.7 1763 120.3 1806 125.8C1849 131.3 1892 137.7 1935.2 134.5C1978.3 131.3 2021.7 118.7 2064.8 106.2C2108 93.7 2151 81.3 2194 64.3C2237 47.3 2280 25.7 2323 21.5C2366 17.3 2409 30.7 2452 55C2495 79.3 2538 114.7 2581 118.7C2624 122.7 2667 95.3 2710 76.5C2753 57.7 2796 47.3 2839 42.2C2882 37 2925 37 2968 58C3011 79 3054 121 3097 142.2C3140 163.3 3183 163.7 3226 136.7C3269 109.7 3312 55.3 3355 55.8C3398 56.3 3441 111.7 3484 127C3527 142.3 3570 117.7 3613 121.2C3656 124.7 3699 156.3 3742 159C3785 161.7 3828 135.3 3871 125C3914 114.7 3957 120.3 3978.5 123.2L4000 126L4000 201L3978.5 201C3957 201 3914 201 3871 201C3828 201 3785 201 3742 201C3699 201 3656 201 3613 201C3570 201 3527 201 3484 201C3441 201 3398 201 3355 201C3312 201 3269 201 3226 201C3183 201 3140 201 3097 201C3054 201 3011 201 2968 201C2925 201 2882 201 2839 201C2796 201 2753 201 2710 201C2667 201 2624 201 2581 201C2538 201 2495 201 2452 201C2409 201 2366 201 2323 201C2280 201 2237 201 2194 201C2151 201 2108 201 2064.8 201C2021.7 201 1978.3 201 1935.2 201C1892 201 1849 201 1806 201C1763 201 1720 201 1677 201C1634 201 1591 201 1548 201C1505 201 1462 201 1419 201C1376 201 1333 201 1290 201C1247 201 1204 201 1161 201C1118 201 1075 201 1032 201C989 201 946 201 903 201C860 201 817 201 774 201C731 201 688 201 645 201C602 201 559 201 516 201C473 201 430 201 387 201C344 201 301 201 258 201C215 201 172 201 129 201C86 201 43 201 21.5 201L0 201Z" fill="#743ad5" stroke-linecap="round" stroke-linejoin="miter"></path></svg>