<svg id="visual" viewBox="0 0 4000 200" width="4000" height="200" xmlns="http://www.w3.org/2000/svg" xmlns:xlink="http://www.w3.org/1999/xlink" version="1.1"><rect x="0" y="0" width="4000" height="200" fill="#fff"></rect><path d="M0 36L166.7 48.2C333.3 60.3 666.7 84.7 1000 109.2C1333.3 133.7 1666.7 158.3 2000 165.7C2333.3 173 2666.7 163 3000 164.5C3333.3 166 3666.7 179 3833.3 185.5L4000 192L4000 201L3833.3 201C3666.7 201 3333.3 201 3000 201C2666.7 201 2333.3 201 2000 201C1666.7 201 1333.3 201 1000 201C666.7 201 333.3 201 166.7 201L0 201Z" fill="#f5f5f7" stroke-linecap="round" stroke-linejoin="miter"></path></svg>