<svg id="visual" viewBox="0 0 4000 200" width="4000" height="200" xmlns="http://www.w3.org/2000/svg" xmlns:xlink="http://www.w3.org/1999/xlink" version="1.1"><rect x="0" y="0" width="4000" height="200" fill="#fff"></rect><path d="M0 25L166.7 29.3C333.3 33.7 666.7 42.3 1000 54.3C1333.3 66.3 1666.7 81.7 2000 104.8C2333.3 128 2666.7 159 3000 152.3C3333.3 145.7 3666.7 101.3 3833.3 79.2L4000 57L4000 201L3833.3 201C3666.7 201 3333.3 201 3000 201C2666.7 201 2333.3 201 2000 201C1666.7 201 1333.3 201 1000 201C666.7 201 333.3 201 166.7 201L0 201Z" fill="#0070f3" stroke-linecap="round" stroke-linejoin="miter"></path></svg>