<svg id="visual" viewBox="0 0 4000 200" width="4000" height="200" xmlns="http://www.w3.org/2000/svg" xmlns:xlink="http://www.w3.org/1999/xlink" version="1.1"><rect x="0" y="0" width="4000" height="200" fill="#0070f3"></rect><path d="M0 12L21.5 18.5C43 25 86 38 129 60.3C172 82.7 215 114.3 258 116.3C301 118.3 344 90.7 387 80.7C430 70.7 473 78.3 516 88.7C559 99 602 112 645 118.3C688 124.7 731 124.3 774 111.3C817 98.3 860 72.7 903 74C946 75.3 989 103.7 1032 114.8C1075 126 1118 120 1161 106.8C1204 93.7 1247 73.3 1290 83.7C1333 94 1376 135 1419 135.8C1462 136.7 1505 97.3 1548 73.5C1591 49.7 1634 41.3 1677 43.2C1720 45 1763 57 1806 62.7C1849 68.3 1892 67.7 1935.2 74.8C1978.3 82 2021.7 97 2064.8 108.5C2108 120 2151 128 2194 114.2C2237 100.3 2280 64.7 2323 68.8C2366 73 2409 117 2452 138.7C2495 160.3 2538 159.7 2581 164.7C2624 169.7 2667 180.3 2710 172.5C2753 164.7 2796 138.3 2839 114C2882 89.7 2925 67.3 2968 69.2C3011 71 3054 97 3097 116.7C3140 136.3 3183 149.7 3226 158C3269 166.3 3312 169.7 3355 168.5C3398 167.3 3441 161.7 3484 138.8C3527 116 3570 76 3613 79.5C3656 83 3699 130 3742 142.5C3785 155 3828 133 3871 122.3C3914 111.7 3957 112.3 3978.5 112.7L4000 113L4000 201L3978.5 201C3957 201 3914 201 3871 201C3828 201 3785 201 3742 201C3699 201 3656 201 3613 201C3570 201 3527 201 3484 201C3441 201 3398 201 3355 201C3312 201 3269 201 3226 201C3183 201 3140 201 3097 201C3054 201 3011 201 2968 201C2925 201 2882 201 2839 201C2796 201 2753 201 2710 201C2667 201 2624 201 2581 201C2538 201 2495 201 2452 201C2409 201 2366 201 2323 201C2280 201 2237 201 2194 201C2151 201 2108 201 2064.8 201C2021.7 201 1978.3 201 1935.2 201C1892 201 1849 201 1806 201C1763 201 1720 201 1677 201C1634 201 1591 201 1548 201C1505 201 1462 201 1419 201C1376 201 1333 201 1290 201C1247 201 1204 201 1161 201C1118 201 1075 201 1032 201C989 201 946 201 903 201C860 201 817 201 774 201C731 201 688 201 645 201C602 201 559 201 516 201C473 201 430 201 387 201C344 201 301 201 258 201C215 201 172 201 129 201C86 201 43 201 21.5 201L0 201Z" fill="#ffffff" stroke-linecap="round" stroke-linejoin="miter"></path></svg>